<svg xmlns="http://www.w3.org/2000/svg" viewBox="0 0 200 200" width="200" height="200" role="img" aria-label="Flat illustration of LeBron James">
  <rect width="200" height="200" fill="#f3f1f7"/>
  <path d="M40 200 q60 -70 120 0 z" fill="#552583"/>
  <path d="M70 200 q30 -34 60 0 z" fill="#3d1e6d"/>
  <text x="100" y="180" text-anchor="middle" font-family="Arial Black, Arial, sans-serif" font-size="40" font-weight="900" fill="#fdb927">23</text>
  <rect x="88" y="120" width="24" height="20" fill="#d99e72"/>
  <circle cx="100" cy="96" r="38" fill="#e8b98f"/>
  <circle cx="62" cy="98" r="7" fill="#e8b98f"/>
  <circle cx="138" cy="98" r="7" fill="#e8b98f"/>
  <path d="M66 104 q34 40 68 0 q-6 30 -34 32 q-28 -2 -34 -32z" fill="#5e4326"/>
  <path d="M64 78 q36 -20 72 0 l0 9 q-36 -18 -72 0z" fill="#fdb927"/>
  <path d="M100 98 l-4 10 q4 3 8 0z" fill="#d99e72"/>
  <circle cx="86" cy="92" r="3.4" fill="#2a2118"/>
  <circle cx="114" cy="92" r="3.4" fill="#2a2118"/>
  <path d="M80 84 q6 -4 12 0" stroke="#3a2a1a" stroke-width="2.4" fill="none" stroke-linecap="round"/>
  <path d="M108 84 q6 -4 12 0" stroke="#3a2a1a" stroke-width="2.4" fill="none" stroke-linecap="round"/>
  <path d="M88 112 q12 10 24 0" stroke="#3a2a1a" stroke-width="2.6" fill="none" stroke-linecap="round"/>
</svg>
